<svg xmlns="http://www.w3.org/2000/svg" width="100%" height="100%" viewBox="0 0 1920 1080">
    <defs>
        <g id="cloud1">
            <polygon style="fill:#F7F5EA;fill-opacity:0.8;" points="150,150 270,150 270,105 330,105 330,60 375,60 375,15 480,15 480,60 600,60 600,105 690,105 690,150 780,150 780,195 930,195 930,240 120,240 120,195 150,195"/>
        </g>
        <g id="cloud2">
            <polygon style="fill:#F7F5EA;fill-opacity:0.8;" points="75,120 180,120 180,75 240,75 240,30 300,30 300,75 360,75 360,120 450,120 450,165 45,165 45,120"/>
        </g>
        <g id="cloud3">
            <polygon style="fill:#F7F5EA;fill-opacity:0.8;" points="105,90 210,90 210,45 270,45 270,0 330,0 330,45 390,45 390,90 480,90 480,135 75,135 75,90"/>
        </g>
    </defs>
    
    <use href="#cloud1" x="0" y="0"/>
    <use href="#cloud2" x="100" y="50"/>
    <use href="#cloud3" x="200" y="100"/>
</svg>