<svg xmlns="http://www.w3.org/2000/svg" xmlns:xlink="http://www.w3.org/1999/xlink" version="1.1" x="0px" y="0px" viewBox="0 0 1920 1080" style="enable-background:new 0 0 1920 1080;" xml:space="preserve">

<g id="OBJECTS">
	<g>
		
		
		
		<g>
				<g>
					<g>
						<polygon style="fill:#C96965;" points="324.643,1002.051 313.445,1002.051 313.445,1013.19 335.837,1013.19 335.837,1002.051         324.643,1002.051       "/>
						<polygon style="fill:#C96965;" points="324.643,968.627 313.445,968.627 313.445,979.769 324.643,979.769 324.643,968.627               "/>
						<polygon style="fill:#C96965;" points="313.445,979.769 302.248,979.769 302.248,990.908 313.445,990.908 313.445,979.769               "/>
						<polygon style="fill:#C96965;" points="291.064,1035.472 302.248,1035.472 302.248,1024.314 291.064,1024.314         291.064,1035.472       "/>
						<polygon style="fill:#C96965;" points="302.248,968.627 302.248,957.487 291.064,957.487 291.064,968.627 302.248,968.627               "/>
						<polygon style="fill:#C96965;" points="279.87,1013.19 279.87,1024.314 291.064,1024.314 291.064,1013.19 279.87,1013.19               "/>
						<polygon style="fill:#C96965;" points="291.064,946.348 279.87,946.348 279.87,957.487 291.064,957.487 291.064,946.348               "/>
						<polygon style="fill:#C96965;" points="235.082,990.908 223.888,990.908 223.888,1013.19 246.28,1013.19 246.28,1002.051         235.082,1002.051 235.082,990.908       "/>
						<polygon style="fill:#C96965;" points="235.082,957.487 223.888,957.487 223.888,968.627 235.082,968.627 235.082,957.487               "/>
						<polygon style="fill:#C96965;" points="201.507,990.908 201.507,1002.051 212.69,1002.051 212.69,979.769 201.507,979.769         201.507,990.908       "/>
						<polygon style="fill:#C96965;" points="190.313,1013.19 201.507,1013.19 201.507,1002.051 190.313,1002.051 190.313,1013.19               "/>
						<polygon style="fill:#C96965;" points="156.723,1013.19 167.917,1013.19 167.917,1002.051 156.723,1002.051 156.723,1013.19               "/>
						<polygon style="fill:#C96965;" points="145.525,1024.314 156.723,1024.314 156.723,1013.19 145.525,1013.19 145.525,1024.314               "/>
						<polygon style="fill:#C96965;" points="134.331,1002.051 134.331,1013.19 145.525,1013.19 145.525,1002.051 134.331,1002.051               "/>
						<polygon style="fill:#C96965;" points="89.558,1002.051 78.36,1002.051 78.36,1013.19 67.165,1013.19 67.165,1024.314         100.752,1024.314 100.752,1013.19 89.558,1013.19 89.558,1002.051       "/>
						<polygon style="fill:#C96965;" points="44.785,1002.051 55.968,1002.051 55.968,990.908 44.785,990.908 44.785,1002.051               "/>
						<polygon style="fill:#C96965;" points="22.393,1002.051 22.393,1013.19 44.785,1013.19 44.785,1002.051 22.393,1002.051               "/>
						<polygon style="fill:#C96965;" points="11.195,990.908 11.195,1002.051 22.393,1002.051 22.393,990.908 11.195,990.908               "/>
					</g>
					<polygon style="fill:#5E2725;" points="335.837,1035.472 0,1035.472 0,1080 347.035,1080 347.035,1035.472 335.837,1035.472             "/>
					<g>
						<polygon style="fill:#873835;" points="335.837,979.769 335.837,968.627 324.643,968.627 324.643,979.769 313.445,979.769         313.445,990.908 335.837,990.908 335.837,1002.051 347.035,1002.051 347.035,979.769 335.837,979.769       "/>
						<polygon style="fill:#873835;" points="324.643,957.487 324.643,946.348 313.445,946.348 313.445,968.627 324.643,968.627         324.643,957.487       "/>
						<polygon style="fill:#873835;" points="313.445,968.627 302.248,968.627 302.248,979.769 313.445,979.769 313.445,968.627               "/>
						<path style="fill:#873835;" d="M302.248,979.769H279.87v-11.142h-11.198v-11.14h-11.195v11.14H246.28v-11.14h-11.198v11.14        h-11.195v-11.14H212.69v11.14h-22.378v11.142h-11.198v11.14h-11.197v22.282h-11.195v11.124h-11.198v-11.124h-11.194v-11.14        h11.194v-11.143h11.198v-22.281h33.59v-11.14h-22.395v-11.14h-11.195v11.14h-11.198v22.281h-22.377v-22.281h-22.396v-11.14        H89.558v22.279h22.392v11.142h-11.198v11.14H89.558v-22.281H67.165v11.142H55.968v-11.142H44.785v-11.14H33.587v22.281H11.195        v-11.142H0v66.845h291.064v-11.157H279.87v-11.124h11.194v11.124h11.183v11.157h44.788v-22.281h-44.788v-11.14h11.198v-11.143        h-11.198V979.769L302.248,979.769z M11.195,990.908h11.198v11.143h22.392v-11.143h11.183v11.143H44.785v11.14H22.393v-11.14        H11.195V990.908L11.195,990.908z M89.558,1024.314H67.165v-11.124H78.36v-11.14h11.198v11.14h11.194v11.124H89.558        L89.558,1024.314z M212.69,979.769v22.282h-11.183v11.14h-11.195v-11.14h11.195v-22.282H212.69L212.69,979.769z         M268.672,1002.051H246.28v11.14h-22.393v-22.282h11.195v11.143h11.198v-11.143h11.197v-11.14h11.195v11.14h11.198v11.143        H268.672L268.672,1002.051z"/>
						<polygon style="fill:#873835;" points="302.248,946.348 291.064,946.348 291.064,957.487 302.248,957.487 302.248,946.348               "/>
						<polygon style="fill:#873835;" points="235.082,946.348 223.888,946.348 223.888,957.487 235.082,957.487 235.082,946.348               "/>
						<polygon style="fill:#873835;" points="145.525,1002.051 145.525,1013.19 156.723,1013.19 156.723,1002.051 145.525,1002.051               "/>
						<polygon style="fill:#873835;" points="55.968,946.348 44.785,946.348 44.785,957.487 55.968,957.487 55.968,946.348               "/>
					</g>
					<g>
						<polygon style="fill:#79B346;" points="335.837,1013.19 347.035,1013.19 347.035,1002.051 335.837,1002.051 335.837,1013.19               "/>
						<polygon style="fill:#79B346;" points="335.837,946.348 324.643,946.348 324.643,968.627 335.837,968.627 335.837,979.769         347.035,979.769 347.035,946.348 335.837,946.348       "/>
						<polygon style="fill:#79B346;" points="324.643,990.908 313.445,990.908 313.445,1002.051 335.837,1002.051 335.837,990.908         324.643,990.908       "/>
						<polygon style="fill:#79B346;" points="302.248,1013.19 313.445,1013.19 313.445,1002.051 302.248,1002.051 302.248,1013.19               "/>
						<polygon style="fill:#79B346;" points="313.445,957.487 313.445,946.348 302.248,946.348 302.248,968.627 313.445,968.627         313.445,957.487       "/>
						<polygon style="fill:#79B346;" points="302.248,968.627 291.064,968.627 291.064,957.487 279.87,957.487 279.87,946.348         235.082,946.348 235.082,957.487 246.28,957.487 246.28,968.627 257.478,968.627 257.478,957.487 268.672,957.487         268.672,968.627 279.87,968.627 279.87,979.769 302.248,979.769 302.248,968.627       "/>
						<polygon style="fill:#79B346;" points="268.672,979.769 257.478,979.769 257.478,990.908 246.28,990.908 246.28,1002.051         279.87,1002.051 279.87,990.908 268.672,990.908 268.672,979.769       "/>
						<polygon style="fill:#79B346;" points="201.507,946.348 167.917,946.348 167.917,957.487 190.313,957.487 190.313,968.627         212.69,968.627 212.69,957.487 223.888,957.487 223.888,946.348 201.507,946.348       "/>
						<polygon style="fill:#79B346;" points="167.917,968.627 156.723,968.627 156.723,990.908 145.525,990.908 145.525,1002.051         167.917,1002.051 167.917,990.908 179.115,990.908 179.115,979.769 190.313,979.769 190.313,968.627 167.917,968.627               "/>
						<polygon style="fill:#79B346;" points="145.525,968.627 145.525,957.487 156.723,957.487 156.723,946.348 100.752,946.348         100.752,957.487 123.147,957.487 123.147,979.769 145.525,979.769 145.525,968.627       "/>
						<polygon style="fill:#79B346;" points="89.558,968.627 89.558,990.908 100.752,990.908 100.752,979.769 111.95,979.769         111.95,968.627 89.558,968.627       "/>
						<polygon style="fill:#79B346;" points="89.558,946.348 55.968,946.348 55.968,957.487 44.785,957.487 44.785,968.627         55.968,968.627 55.968,979.769 67.165,979.769 67.165,968.627 89.558,968.627 89.558,946.348       "/>
						<polygon style="fill:#79B346;" points="33.587,946.348 0,946.348 0,968.627 11.195,968.627 11.195,979.769 33.587,979.769         33.587,957.487 44.785,957.487 44.785,946.348 33.587,946.348       "/>
					</g>
					<polygon style="fill:#9BE65A;" points="335.837,935.206 0,935.206 0,946.348 347.035,946.348 347.035,935.206 335.837,935.206             "/>
				</g>
				<g>
					<g>
						<polygon style="fill:#C96965;" points="671.678,1002.051 660.48,1002.051 660.48,1013.19 682.873,1013.19 682.873,1002.051         671.678,1002.051       "/>
						<polygon style="fill:#C96965;" points="671.678,968.627 660.48,968.627 660.48,979.769 671.678,979.769 671.678,968.627               "/>
						<polygon style="fill:#C96965;" points="660.48,979.769 649.283,979.769 649.283,990.908 660.48,990.908 660.48,979.769               "/>
						<polygon style="fill:#C96965;" points="638.1,1035.472 649.283,1035.472 649.283,1024.314 638.1,1024.314 638.1,1035.472               "/>
						<polygon style="fill:#C96965;" points="649.283,968.627 649.283,957.487 638.1,957.487 638.1,968.627 649.283,968.627               "/>
						<polygon style="fill:#C96965;" points="626.905,1013.19 626.905,1024.314 638.1,1024.314 638.1,1013.19 626.905,1013.19               "/>
						<polygon style="fill:#C96965;" points="638.1,946.348 626.905,946.348 626.905,957.487 638.1,957.487 638.1,946.348       "/>
						<polygon style="fill:#C96965;" points="582.118,990.908 570.923,990.908 570.923,1013.19 593.315,1013.19 593.315,1002.051         582.118,1002.051 582.118,990.908       "/>
						<polygon style="fill:#C96965;" points="582.118,957.487 570.923,957.487 570.923,968.627 582.118,968.627 582.118,957.487               "/>
						<polygon style="fill:#C96965;" points="548.542,990.908 548.542,1002.051 559.726,1002.051 559.726,979.769 548.542,979.769         548.542,990.908       "/>
						<polygon style="fill:#C96965;" points="537.348,1013.19 548.542,1013.19 548.542,1002.051 537.348,1002.051 537.348,1013.19               "/>
						<polygon style="fill:#C96965;" points="503.758,1013.19 514.953,1013.19 514.953,1002.051 503.758,1002.051 503.758,1013.19               "/>
						<polygon style="fill:#C96965;" points="492.56,1024.314 503.758,1024.314 503.758,1013.19 492.56,1013.19 492.56,1024.314               "/>
						<polygon style="fill:#C96965;" points="481.365,1002.051 481.365,1013.19 492.56,1013.19 492.56,1002.051 481.365,1002.051               "/>
						<polygon style="fill:#C96965;" points="436.593,1002.051 425.395,1002.051 425.395,1013.19 414.2,1013.19 414.2,1024.314         447.787,1024.314 447.787,1013.19 436.593,1013.19 436.593,1002.051       "/>
						<polygon style="fill:#C96965;" points="391.82,1002.051 403.003,1002.051 403.003,990.908 391.82,990.908 391.82,1002.051               "/>
						<polygon style="fill:#C96965;" points="369.427,1002.051 369.427,1013.19 391.82,1013.19 391.82,1002.051 369.427,1002.051               "/>
						<polygon style="fill:#C96965;" points="358.23,990.908 358.23,1002.051 369.427,1002.051 369.427,990.908 358.23,990.908               "/>
					</g>
					<polygon style="fill:#5E2725;" points="682.873,1035.472 347.035,1035.472 347.035,1080 694.07,1080 694.07,1035.472        682.873,1035.472      "/>
					<g>
						<polygon style="fill:#873835;" points="682.873,979.769 682.873,968.627 671.678,968.627 671.678,979.769 660.48,979.769         660.48,990.908 682.873,990.908 682.873,1002.051 694.07,1002.051 694.07,979.769 682.873,979.769       "/>
						<polygon style="fill:#873835;" points="671.678,957.487 671.678,946.348 660.48,946.348 660.48,968.627 671.678,968.627         671.678,957.487       "/>
						<polygon style="fill:#873835;" points="660.48,968.627 649.283,968.627 649.283,979.769 660.48,979.769 660.48,968.627               "/>
						<path style="fill:#873835;" d="M649.283,979.769h-22.377v-11.142h-11.198v-11.14h-11.195v11.14h-11.197v-11.14h-11.198v11.14        h-11.195v-11.14h-11.197v11.14h-22.378v11.142H526.15v11.14h-11.197v22.282h-11.195v11.124H492.56v-11.124h-11.195v-11.14        h11.195v-11.143h11.198v-22.281h33.59v-11.14h-22.395v-11.14h-11.195v11.14H492.56v22.281h-22.378v-22.281h-22.396v-11.14        h-11.194v22.279h22.392v11.142h-11.198v11.14h-11.194v-22.281H414.2v11.142h-11.197v-11.142H391.82v-11.14h-11.198v22.281        H358.23v-11.142h-11.195v66.845H638.1v-11.157h-11.194v-11.124H638.1v11.124h11.183v11.157h44.788v-22.281h-44.788v-11.14        h11.198v-11.143h-11.198V979.769L649.283,979.769z M358.23,990.908h11.197v11.143h22.393v-11.143h11.183v11.143H391.82v11.14        h-22.393v-11.14H358.23V990.908L358.23,990.908z M436.593,1024.314H414.2v-11.124h11.195v-11.14h11.198v11.14h11.194v11.124        H436.593L436.593,1024.314z M559.726,979.769v22.282h-11.183v11.14h-11.195v-11.14h11.195v-22.282H559.726L559.726,979.769z         M615.707,1002.051h-22.392v11.14h-22.392v-22.282h11.195v11.143h11.198v-11.143h11.197v-11.14h11.195v11.14h11.198v11.143        H615.707L615.707,1002.051z"/>
						<polygon style="fill:#873835;" points="649.283,946.348 638.1,946.348 638.1,957.487 649.283,957.487 649.283,946.348               "/>
						<polygon style="fill:#873835;" points="582.118,946.348 570.923,946.348 570.923,957.487 582.118,957.487 582.118,946.348               "/>
						<polygon style="fill:#873835;" points="492.56,1002.051 492.56,1013.19 503.758,1013.19 503.758,1002.051 492.56,1002.051               "/>
						<polygon style="fill:#873835;" points="403.003,946.348 391.82,946.348 391.82,957.487 403.003,957.487 403.003,946.348               "/>
					</g>
					<g>
						<polygon style="fill:#79B346;" points="682.873,1013.19 694.07,1013.19 694.07,1002.051 682.873,1002.051 682.873,1013.19               "/>
						<polygon style="fill:#79B346;" points="682.873,946.348 671.678,946.348 671.678,968.627 682.873,968.627 682.873,979.769         694.07,979.769 694.07,946.348 682.873,946.348       "/>
						<polygon style="fill:#79B346;" points="671.678,990.908 660.48,990.908 660.48,1002.051 682.873,1002.051 682.873,990.908         671.678,990.908       "/>
						<polygon style="fill:#79B346;" points="649.283,1013.19 660.48,1013.19 660.48,1002.051 649.283,1002.051 649.283,1013.19               "/>
						<polygon style="fill:#79B346;" points="660.48,957.487 660.48,946.348 649.283,946.348 649.283,968.627 660.48,968.627         660.48,957.487       "/>
						<polygon style="fill:#79B346;" points="649.283,968.627 638.1,968.627 638.1,957.487 626.905,957.487 626.905,946.348         582.118,946.348 582.118,957.487 593.315,957.487 593.315,968.627 604.513,968.627 604.513,957.487 615.707,957.487         615.707,968.627 626.905,968.627 626.905,979.769 649.283,979.769 649.283,968.627       "/>
						<polygon style="fill:#79B346;" points="615.707,979.769 604.513,979.769 604.513,990.908 593.315,990.908 593.315,1002.051         626.905,1002.051 626.905,990.908 615.707,990.908 615.707,979.769       "/>
						<polygon style="fill:#79B346;" points="548.542,946.348 514.953,946.348 514.953,957.487 537.348,957.487 537.348,968.627         559.726,968.627 559.726,957.487 570.923,957.487 570.923,946.348 548.542,946.348       "/>
						<polygon style="fill:#79B346;" points="514.953,968.627 503.758,968.627 503.758,990.908 492.56,990.908 492.56,1002.051         514.953,1002.051 514.953,990.908 526.15,990.908 526.15,979.769 537.348,979.769 537.348,968.627 514.953,968.627       "/>
						<polygon style="fill:#79B346;" points="492.56,968.627 492.56,957.487 503.758,957.487 503.758,946.348 447.787,946.348         447.787,957.487 470.183,957.487 470.183,979.769 492.56,979.769 492.56,968.627       "/>
						<polygon style="fill:#79B346;" points="436.593,968.627 436.593,990.908 447.787,990.908 447.787,979.769 458.985,979.769         458.985,968.627 436.593,968.627       "/>
						<polygon style="fill:#79B346;" points="436.593,946.348 403.003,946.348 403.003,957.487 391.82,957.487 391.82,968.627         403.003,968.627 403.003,979.769 414.2,979.769 414.2,968.627 436.593,968.627 436.593,946.348       "/>
						<polygon style="fill:#79B346;" points="380.622,946.348 347.035,946.348 347.035,968.627 358.23,968.627 358.23,979.769         380.622,979.769 380.622,957.487 391.82,957.487 391.82,946.348 380.622,946.348       "/>
					</g>
					<polygon style="fill:#9BE65A;" points="682.873,935.206 347.035,935.206 347.035,946.348 694.07,946.348 694.07,935.206        682.873,935.206      "/>
				</g>
				<g>
					<g>
						<polygon style="fill:#C96965;" points="1018.713,1002.051 1007.516,1002.051 1007.516,1013.19 1029.908,1013.19         1029.908,1002.051 1018.713,1002.051       "/>
						<polygon style="fill:#C96965;" points="1018.713,968.627 1007.516,968.627 1007.516,979.769 1018.713,979.769         1018.713,968.627       "/>
						<polygon style="fill:#C96965;" points="1007.516,979.769 996.318,979.769 996.318,990.908 1007.516,990.908 1007.516,979.769               "/>
						<polygon style="fill:#C96965;" points="985.135,1035.472 996.318,1035.472 996.318,1024.314 985.135,1024.314         985.135,1035.472       "/>
						<polygon style="fill:#C96965;" points="996.318,968.627 996.318,957.487 985.135,957.487 985.135,968.627 996.318,968.627               "/>
						<polygon style="fill:#C96965;" points="973.94,1013.19 973.94,1024.314 985.135,1024.314 985.135,1013.19 973.94,1013.19               "/>
						<polygon style="fill:#C96965;" points="985.135,946.348 973.94,946.348 973.94,957.487 985.135,957.487 985.135,946.348               "/>
						<polygon style="fill:#C96965;" points="929.153,990.908 917.958,990.908 917.958,1013.19 940.351,1013.19 940.351,1002.051         929.153,1002.051 929.153,990.908       "/>
						<polygon style="fill:#C96965;" points="929.153,957.487 917.958,957.487 917.958,968.627 929.153,968.627 929.153,957.487               "/>
						<polygon style="fill:#C96965;" points="895.577,990.908 895.577,1002.051 906.761,1002.051 906.761,979.769 895.577,979.769         895.577,990.908       "/>
						<polygon style="fill:#C96965;" points="884.383,1013.19 895.577,1013.19 895.577,1002.051 884.383,1002.051 884.383,1013.19               "/>
						<polygon style="fill:#C96965;" points="850.793,1013.19 861.988,1013.19 861.988,1002.051 850.793,1002.051 850.793,1013.19               "/>
						<polygon style="fill:#C96965;" points="839.595,1024.314 850.793,1024.314 850.793,1013.19 839.595,1013.19 839.595,1024.314               "/>
						<polygon style="fill:#C96965;" points="828.4,1002.051 828.4,1013.19 839.595,1013.19 839.595,1002.051 828.4,1002.051               "/>
						<polygon style="fill:#C96965;" points="783.628,1002.051 772.43,1002.051 772.43,1013.19 761.235,1013.19 761.235,1024.314         794.822,1024.314 794.822,1013.19 783.628,1013.19 783.628,1002.051       "/>
						<polygon style="fill:#C96965;" points="738.855,1002.051 750.038,1002.051 750.038,990.908 738.855,990.908 738.855,1002.051               "/>
						<polygon style="fill:#C96965;" points="716.462,1002.051 716.462,1013.19 738.855,1013.19 738.855,1002.051 716.462,1002.051               "/>
						<polygon style="fill:#C96965;" points="705.265,990.908 705.265,1002.051 716.462,1002.051 716.462,990.908 705.265,990.908               "/>
					</g>
					<polygon style="fill:#5E2725;" points="1029.908,1035.472 694.07,1035.472 694.07,1080 1041.105,1080 1041.105,1035.472        1029.908,1035.472      "/>
					<g>
						<polygon style="fill:#873835;" points="1029.908,979.769 1029.908,968.627 1018.713,968.627 1018.713,979.769         1007.516,979.769 1007.516,990.908 1029.908,990.908 1029.908,1002.051 1041.105,1002.051 1041.105,979.769 1029.908,979.769               "/>
						<polygon style="fill:#873835;" points="1018.713,957.487 1018.713,946.348 1007.516,946.348 1007.516,968.627         1018.713,968.627 1018.713,957.487       "/>
						<polygon style="fill:#873835;" points="1007.516,968.627 996.318,968.627 996.318,979.769 1007.516,979.769 1007.516,968.627               "/>
						<path style="fill:#873835;" d="M996.318,979.769H973.94v-11.142h-11.198v-11.14h-11.194v11.14h-11.197v-11.14h-11.198v11.14        h-11.195v-11.14h-11.197v11.14h-22.378v11.142h-11.198v11.14h-11.197v22.282h-11.195v11.124h-11.198v-11.124H828.4v-11.14        h11.195v-11.143h11.198v-22.281h33.59v-11.14h-22.395v-11.14h-11.195v11.14h-11.198v22.281h-22.377v-22.281h-22.396v-11.14        h-11.194v22.279h22.392v11.142h-11.198v11.14h-11.194v-22.281h-22.393v11.142h-11.197v-11.142h-11.183v-11.14h-11.198v22.281        h-22.392v-11.142H694.07v66.845h291.064v-11.157H973.94v-11.124h11.194v11.124h11.184v11.157h44.787v-22.281h-44.787v-11.14        h11.197v-11.143h-11.197V979.769L996.318,979.769z M705.265,990.908h11.197v11.143h22.393v-11.143h11.183v11.143h-11.183        v11.14h-22.393v-11.14h-11.197V990.908L705.265,990.908z M783.628,1024.314h-22.393v-11.124h11.195v-11.14h11.198v11.14        h11.194v11.124H783.628L783.628,1024.314z M906.761,979.769v22.282h-11.184v11.14h-11.194v-11.14h11.194v-22.282H906.761        L906.761,979.769z M962.742,1002.051h-22.392v11.14h-22.393v-22.282h11.195v11.143h11.198v-11.143h11.197v-11.14h11.194v11.14        h11.198v11.143H962.742L962.742,1002.051z"/>
						<polygon style="fill:#873835;" points="996.318,946.348 985.135,946.348 985.135,957.487 996.318,957.487 996.318,946.348               "/>
						<polygon style="fill:#873835;" points="929.153,946.348 917.958,946.348 917.958,957.487 929.153,957.487 929.153,946.348               "/>
						<polygon style="fill:#873835;" points="839.595,1002.051 839.595,1013.19 850.793,1013.19 850.793,1002.051 839.595,1002.051               "/>
						<polygon style="fill:#873835;" points="750.038,946.348 738.855,946.348 738.855,957.487 750.038,957.487 750.038,946.348               "/>
					</g>
					<g>
						<polygon style="fill:#79B346;" points="1029.908,1013.19 1041.105,1013.19 1041.105,1002.051 1029.908,1002.051         1029.908,1013.19       "/>
						<polygon style="fill:#79B346;" points="1029.908,946.348 1018.713,946.348 1018.713,968.627 1029.908,968.627         1029.908,979.769 1041.105,979.769 1041.105,946.348 1029.908,946.348       "/>
						<polygon style="fill:#79B346;" points="1018.713,990.908 1007.516,990.908 1007.516,1002.051 1029.908,1002.051         1029.908,990.908 1018.713,990.908       "/>
						<polygon style="fill:#79B346;" points="996.318,1013.19 1007.516,1013.19 1007.516,1002.051 996.318,1002.051         996.318,1013.19       "/>
						<polygon style="fill:#79B346;" points="1007.516,957.487 1007.516,946.348 996.318,946.348 996.318,968.627 1007.516,968.627         1007.516,957.487       "/>
						<polygon style="fill:#79B346;" points="996.318,968.627 985.135,968.627 985.135,957.487 973.94,957.487 973.94,946.348         929.153,946.348 929.153,957.487 940.351,957.487 940.351,968.627 951.548,968.627 951.548,957.487 962.742,957.487         962.742,968.627 973.94,968.627 973.94,979.769 996.318,979.769 996.318,968.627       "/>
						<polygon style="fill:#79B346;" points="962.742,979.769 951.548,979.769 951.548,990.908 940.351,990.908 940.351,1002.051         973.94,1002.051 973.94,990.908 962.742,990.908 962.742,979.769       "/>
						<polygon style="fill:#79B346;" points="895.577,946.348 861.988,946.348 861.988,957.487 884.383,957.487 884.383,968.627         906.761,968.627 906.761,957.487 917.958,957.487 917.958,946.348 895.577,946.348       "/>
						<polygon style="fill:#79B346;" points="861.988,968.627 850.793,968.627 850.793,990.908 839.595,990.908 839.595,1002.051         861.988,1002.051 861.988,990.908 873.185,990.908 873.185,979.769 884.383,979.769 884.383,968.627 861.988,968.627               "/>
						<polygon style="fill:#79B346;" points="839.595,968.627 839.595,957.487 850.793,957.487 850.793,946.348 794.822,946.348         794.822,957.487 817.218,957.487 817.218,979.769 839.595,979.769 839.595,968.627       "/>
						<polygon style="fill:#79B346;" points="783.628,968.627 783.628,990.908 794.822,990.908 794.822,979.769 806.02,979.769         806.02,968.627 783.628,968.627       "/>
						<polygon style="fill:#79B346;" points="783.628,946.348 750.038,946.348 750.038,957.487 738.855,957.487 738.855,968.627         750.038,968.627 750.038,979.769 761.235,979.769 761.235,968.627 783.628,968.627 783.628,946.348       "/>
						<polygon style="fill:#79B346;" points="727.657,946.348 694.07,946.348 694.07,968.627 705.265,968.627 705.265,979.769         727.657,979.769 727.657,957.487 738.855,957.487 738.855,946.348 727.657,946.348       "/>
					</g>
					<polygon style="fill:#9BE65A;" points="1029.908,935.206 694.07,935.206 694.07,946.348 1041.105,946.348 1041.105,935.206        1029.908,935.206      "/>
				</g>
				<g>
					<g>
						<polygon style="fill:#C96965;" points="1365.748,1002.051 1354.551,1002.051 1354.551,1013.19 1376.943,1013.19         1376.943,1002.051 1365.748,1002.051       "/>
						<polygon style="fill:#C96965;" points="1365.748,968.627 1354.551,968.627 1354.551,979.769 1365.748,979.769         1365.748,968.627       "/>
						<polygon style="fill:#C96965;" points="1354.551,979.769 1343.354,979.769 1343.354,990.908 1354.551,990.908         1354.551,979.769       "/>
						<polygon style="fill:#C96965;" points="1332.17,1035.472 1343.354,1035.472 1343.354,1024.314 1332.17,1024.314         1332.17,1035.472       "/>
						<polygon style="fill:#C96965;" points="1343.354,968.627 1343.354,957.487 1332.17,957.487 1332.17,968.627 1343.354,968.627               "/>
						<polygon style="fill:#C96965;" points="1320.976,1013.19 1320.976,1024.314 1332.17,1024.314 1332.17,1013.19         1320.976,1013.19       "/>
						<polygon style="fill:#C96965;" points="1332.17,946.348 1320.976,946.348 1320.976,957.487 1332.17,957.487 1332.17,946.348               "/>
						<polygon style="fill:#C96965;" points="1276.188,990.908 1264.993,990.908 1264.993,1013.19 1287.386,1013.19         1287.386,1002.051 1276.188,1002.051 1276.188,990.908       "/>
						<polygon style="fill:#C96965;" points="1276.188,957.487 1264.993,957.487 1264.993,968.627 1276.188,968.627         1276.188,957.487       "/>
						<polygon style="fill:#C96965;" points="1242.612,990.908 1242.612,1002.051 1253.796,1002.051 1253.796,979.769         1242.612,979.769 1242.612,990.908       "/>
						<polygon style="fill:#C96965;" points="1231.418,1013.19 1242.612,1013.19 1242.612,1002.051 1231.418,1002.051         1231.418,1013.19       "/>
						<polygon style="fill:#C96965;" points="1197.828,1013.19 1209.022,1013.19 1209.022,1002.051 1197.828,1002.051         1197.828,1013.19       "/>
						<polygon style="fill:#C96965;" points="1186.631,1024.314 1197.828,1024.314 1197.828,1013.19 1186.631,1013.19         1186.631,1024.314       "/>
						<polygon style="fill:#C96965;" points="1175.436,1002.051 1175.436,1013.19 1186.631,1013.19 1186.631,1002.051         1175.436,1002.051       "/>
						<polygon style="fill:#C96965;" points="1130.663,1002.051 1119.465,1002.051 1119.465,1013.19 1108.271,1013.19         1108.271,1024.314 1141.857,1024.314 1141.857,1013.19 1130.663,1013.19 1130.663,1002.051       "/>
						<polygon style="fill:#C96965;" points="1085.89,1002.051 1097.073,1002.051 1097.073,990.908 1085.89,990.908         1085.89,1002.051       "/>
						<polygon style="fill:#C96965;" points="1063.498,1002.051 1063.498,1013.19 1085.89,1013.19 1085.89,1002.051         1063.498,1002.051       "/>
						<polygon style="fill:#C96965;" points="1052.3,990.908 1052.3,1002.051 1063.498,1002.051 1063.498,990.908 1052.3,990.908               "/>
					</g>
					<polygon style="fill:#5E2725;" points="1376.943,1035.472 1041.105,1035.472 1041.105,1080 1388.141,1080 1388.141,1035.472        1376.943,1035.472      "/>
					<g>
						<polygon style="fill:#873835;" points="1376.943,979.769 1376.943,968.627 1365.748,968.627 1365.748,979.769         1354.551,979.769 1354.551,990.908 1376.943,990.908 1376.943,1002.051 1388.141,1002.051 1388.141,979.769 1376.943,979.769               "/>
						<polygon style="fill:#873835;" points="1365.748,957.487 1365.748,946.348 1354.551,946.348 1354.551,968.627         1365.748,968.627 1365.748,957.487       "/>
						<polygon style="fill:#873835;" points="1354.551,968.627 1343.354,968.627 1343.354,979.769 1354.551,979.769         1354.551,968.627       "/>
						<path style="fill:#873835;" d="M1343.354,979.769h-22.378v-11.142h-11.198v-11.14h-11.194v11.14h-11.197v-11.14h-11.198v11.14        h-11.194v-11.14h-11.197v11.14h-22.378v11.142h-11.197v11.14h-11.198v22.282h-11.194v11.124h-11.197v-11.124h-11.195v-11.14        h11.195v-11.143h11.197v-22.281h33.59v-11.14h-22.396v-11.14h-11.194v11.14h-11.197v22.281h-22.378v-22.281h-22.396v-11.14        h-11.194v22.279h22.392v11.142h-11.197v11.14h-11.194v-22.281h-22.393v11.142h-11.197v-11.142h-11.184v-11.14h-11.197v22.281        H1052.3v-11.142h-11.194v66.845h291.064v-11.157h-11.194v-11.124h11.194v11.124h11.184v11.157h44.787v-22.281h-44.787v-11.14        h11.197v-11.143h-11.197V979.769L1343.354,979.769z M1052.3,990.908h11.198v11.143h22.392v-11.143h11.184v11.143h-11.184        v11.14h-22.392v-11.14H1052.3V990.908L1052.3,990.908z M1130.663,1024.314h-22.393v-11.124h11.194v-11.14h11.198v11.14h11.194        v11.124H1130.663L1130.663,1024.314z M1253.796,979.769v22.282h-11.184v11.14h-11.194v-11.14h11.194v-22.282H1253.796        L1253.796,979.769z M1309.777,1002.051h-22.392v11.14h-22.393v-22.282h11.194v11.143h11.198v-11.143h11.197v-11.14h11.194        v11.14h11.198v11.143H1309.777L1309.777,1002.051z"/>
						<polygon style="fill:#873835;" points="1343.354,946.348 1332.17,946.348 1332.17,957.487 1343.354,957.487 1343.354,946.348               "/>
						<polygon style="fill:#873835;" points="1276.188,946.348 1264.993,946.348 1264.993,957.487 1276.188,957.487         1276.188,946.348       "/>
						<polygon style="fill:#873835;" points="1186.631,1002.051 1186.631,1013.19 1197.828,1013.19 1197.828,1002.051         1186.631,1002.051       "/>
						<polygon style="fill:#873835;" points="1097.073,946.348 1085.89,946.348 1085.89,957.487 1097.073,957.487 1097.073,946.348               "/>
					</g>
					<g>
						<polygon style="fill:#79B346;" points="1376.943,1013.19 1388.141,1013.19 1388.141,1002.051 1376.943,1002.051         1376.943,1013.19       "/>
						<polygon style="fill:#79B346;" points="1376.943,946.348 1365.748,946.348 1365.748,968.627 1376.943,968.627         1376.943,979.769 1388.141,979.769 1388.141,946.348 1376.943,946.348       "/>
						<polygon style="fill:#79B346;" points="1365.748,990.908 1354.551,990.908 1354.551,1002.051 1376.943,1002.051         1376.943,990.908 1365.748,990.908       "/>
						<polygon style="fill:#79B346;" points="1343.354,1013.19 1354.551,1013.19 1354.551,1002.051 1343.354,1002.051         1343.354,1013.19       "/>
						<polygon style="fill:#79B346;" points="1354.551,957.487 1354.551,946.348 1343.354,946.348 1343.354,968.627         1354.551,968.627 1354.551,957.487       "/>
						<polygon style="fill:#79B346;" points="1343.354,968.627 1332.17,968.627 1332.17,957.487 1320.976,957.487 1320.976,946.348         1276.188,946.348 1276.188,957.487 1287.386,957.487 1287.386,968.627 1298.583,968.627 1298.583,957.487 1309.777,957.487         1309.777,968.627 1320.976,968.627 1320.976,979.769 1343.354,979.769 1343.354,968.627       "/>
						<polygon style="fill:#79B346;" points="1309.777,979.769 1298.583,979.769 1298.583,990.908 1287.386,990.908         1287.386,1002.051 1320.976,1002.051 1320.976,990.908 1309.777,990.908 1309.777,979.769       "/>
						<polygon style="fill:#79B346;" points="1242.612,946.348 1209.022,946.348 1209.022,957.487 1231.418,957.487         1231.418,968.627 1253.796,968.627 1253.796,957.487 1264.993,957.487 1264.993,946.348 1242.612,946.348       "/>
						<polygon style="fill:#79B346;" points="1209.022,968.627 1197.828,968.627 1197.828,990.908 1186.631,990.908         1186.631,1002.051 1209.022,1002.051 1209.022,990.908 1220.221,990.908 1220.221,979.769 1231.418,979.769 1231.418,968.627         1209.022,968.627       "/>
						<polygon style="fill:#79B346;" points="1186.631,968.627 1186.631,957.487 1197.828,957.487 1197.828,946.348         1141.857,946.348 1141.857,957.487 1164.253,957.487 1164.253,979.769 1186.631,979.769 1186.631,968.627       "/>
						<polygon style="fill:#79B346;" points="1130.663,968.627 1130.663,990.908 1141.857,990.908 1141.857,979.769         1153.055,979.769 1153.055,968.627 1130.663,968.627       "/>
						<polygon style="fill:#79B346;" points="1130.663,946.348 1097.073,946.348 1097.073,957.487 1085.89,957.487 1085.89,968.627         1097.073,968.627 1097.073,979.769 1108.271,979.769 1108.271,968.627 1130.663,968.627 1130.663,946.348       "/>
						<polygon style="fill:#79B346;" points="1074.692,946.348 1041.105,946.348 1041.105,968.627 1052.3,968.627 1052.3,979.769         1074.692,979.769 1074.692,957.487 1085.89,957.487 1085.89,946.348 1074.692,946.348       "/>
					</g>
					<polygon style="fill:#9BE65A;" points="1376.943,935.206 1041.105,935.206 1041.105,946.348 1388.141,946.348        1388.141,935.206 1376.943,935.206      "/>
				</g>
				<g>
					<g>
						<polygon style="fill:#C96965;" points="1712.783,1002.051 1701.586,1002.051 1701.586,1013.19 1723.978,1013.19         1723.978,1002.051 1712.783,1002.051       "/>
						<polygon style="fill:#C96965;" points="1712.783,968.627 1701.586,968.627 1701.586,979.769 1712.783,979.769         1712.783,968.627       "/>
						<polygon style="fill:#C96965;" points="1701.586,979.769 1690.388,979.769 1690.388,990.908 1701.586,990.908         1701.586,979.769       "/>
						<polygon style="fill:#C96965;" points="1679.205,1035.472 1690.388,1035.472 1690.388,1024.314 1679.205,1024.314         1679.205,1035.472       "/>
						<polygon style="fill:#C96965;" points="1690.388,968.627 1690.388,957.487 1679.205,957.487 1679.205,968.627         1690.388,968.627       "/>
						<polygon style="fill:#C96965;" points="1668.011,1013.19 1668.011,1024.314 1679.205,1024.314 1679.205,1013.19         1668.011,1013.19       "/>
						<polygon style="fill:#C96965;" points="1679.205,946.348 1668.011,946.348 1668.011,957.487 1679.205,957.487         1679.205,946.348       "/>
						<polygon style="fill:#C96965;" points="1623.223,990.908 1612.028,990.908 1612.028,1013.19 1634.421,1013.19         1634.421,1002.051 1623.223,1002.051 1623.223,990.908       "/>
						<polygon style="fill:#C96965;" points="1623.223,957.487 1612.028,957.487 1612.028,968.627 1623.223,968.627         1623.223,957.487       "/>
						<polygon style="fill:#C96965;" points="1589.647,990.908 1589.647,1002.051 1600.831,1002.051 1600.831,979.769         1589.647,979.769 1589.647,990.908       "/>
						<polygon style="fill:#C96965;" points="1578.453,1013.19 1589.647,1013.19 1589.647,1002.051 1578.453,1002.051         1578.453,1013.19       "/>
						<polygon style="fill:#C96965;" points="1544.863,1013.19 1556.058,1013.19 1556.058,1002.051 1544.863,1002.051         1544.863,1013.19       "/>
						<polygon style="fill:#C96965;" points="1533.666,1024.314 1544.863,1024.314 1544.863,1013.19 1533.666,1013.19         1533.666,1024.314       "/>
						<polygon style="fill:#C96965;" points="1522.471,1002.051 1522.471,1013.19 1533.666,1013.19 1533.666,1002.051         1522.471,1002.051       "/>
						<polygon style="fill:#C96965;" points="1477.698,1002.051 1466.5,1002.051 1466.5,1013.19 1455.306,1013.19         1455.306,1024.314 1488.893,1024.314 1488.893,1013.19 1477.698,1013.19 1477.698,1002.051       "/>
						<polygon style="fill:#C96965;" points="1432.925,1002.051 1444.108,1002.051 1444.108,990.908 1432.925,990.908         1432.925,1002.051       "/>
						<polygon style="fill:#C96965;" points="1410.533,1002.051 1410.533,1013.19 1432.925,1013.19 1432.925,1002.051         1410.533,1002.051       "/>
						<polygon style="fill:#C96965;" points="1399.335,990.908 1399.335,1002.051 1410.533,1002.051 1410.533,990.908         1399.335,990.908       "/>
					</g>
					<polygon style="fill:#5E2725;" points="1723.978,1035.472 1388.141,1035.472 1388.141,1080 1735.176,1080 1735.176,1035.472        1723.978,1035.472      "/>
					<g>
						<polygon style="fill:#873835;" points="1723.978,979.769 1723.978,968.627 1712.783,968.627 1712.783,979.769         1701.586,979.769 1701.586,990.908 1723.978,990.908 1723.978,1002.051 1735.176,1002.051 1735.176,979.769 1723.978,979.769               "/>
						<polygon style="fill:#873835;" points="1712.783,957.487 1712.783,946.348 1701.586,946.348 1701.586,968.627         1712.783,968.627 1712.783,957.487       "/>
						<polygon style="fill:#873835;" points="1701.586,968.627 1690.388,968.627 1690.388,979.769 1701.586,979.769         1701.586,968.627       "/>
						<path style="fill:#873835;" d="M1690.388,979.769h-22.377v-11.142h-11.198v-11.14h-11.194v11.14h-11.197v-11.14h-11.198v11.14        h-11.194v-11.14h-11.197v11.14h-22.378v11.142h-11.198v11.14h-11.197v22.282h-11.194v11.124h-11.197v-11.124h-11.195v-11.14        h11.195v-11.143h11.197v-22.281h33.59v-11.14h-22.396v-11.14h-11.194v11.14h-11.197v22.281h-22.378v-22.281h-22.396v-11.14        h-11.194v22.279h22.392v11.142h-11.197v11.14h-11.194v-22.281h-22.393v11.142h-11.197v-11.142h-11.184v-11.14h-11.197v22.281        h-22.393v-11.142h-11.194v66.845h291.064v-11.157h-11.194v-11.124h11.194v11.124h11.183v11.157h44.788v-22.281h-44.788v-11.14        h11.198v-11.143h-11.198V979.769L1690.388,979.769z M1399.335,990.908h11.198v11.143h22.392v-11.143h11.184v11.143h-11.184        v11.14h-22.392v-11.14h-11.198V990.908L1399.335,990.908z M1477.698,1024.314h-22.393v-11.124h11.194v-11.14h11.198v11.14        h11.194v11.124H1477.698L1477.698,1024.314z M1600.831,979.769v22.282h-11.184v11.14h-11.194v-11.14h11.194v-22.282H1600.831        L1600.831,979.769z M1656.813,1002.051h-22.392v11.14h-22.393v-22.282h11.194v11.143h11.198v-11.143h11.197v-11.14h11.194        v11.14h11.198v11.143H1656.813L1656.813,1002.051z"/>
						<polygon style="fill:#873835;" points="1690.388,946.348 1679.205,946.348 1679.205,957.487 1690.388,957.487         1690.388,946.348       "/>
						<polygon style="fill:#873835;" points="1623.223,946.348 1612.028,946.348 1612.028,957.487 1623.223,957.487         1623.223,946.348       "/>
						<polygon style="fill:#873835;" points="1533.666,1002.051 1533.666,1013.19 1544.863,1013.19 1544.863,1002.051         1533.666,1002.051       "/>
						<polygon style="fill:#873835;" points="1444.108,946.348 1432.925,946.348 1432.925,957.487 1444.108,957.487         1444.108,946.348       "/>
					</g>
					<g>
						<polygon style="fill:#79B346;" points="1723.978,1013.19 1735.176,1013.19 1735.176,1002.051 1723.978,1002.051         1723.978,1013.19       "/>
						<polygon style="fill:#79B346;" points="1723.978,946.348 1712.783,946.348 1712.783,968.627 1723.978,968.627         1723.978,979.769 1735.176,979.769 1735.176,946.348 1723.978,946.348       "/>
						<polygon style="fill:#79B346;" points="1712.783,990.908 1701.586,990.908 1701.586,1002.051 1723.978,1002.051         1723.978,990.908 1712.783,990.908       "/>
						<polygon style="fill:#79B346;" points="1690.388,1013.19 1701.586,1013.19 1701.586,1002.051 1690.388,1002.051         1690.388,1013.19       "/>
						<polygon style="fill:#79B346;" points="1701.586,957.487 1701.586,946.348 1690.388,946.348 1690.388,968.627         1701.586,968.627 1701.586,957.487       "/>
						<polygon style="fill:#79B346;" points="1690.388,968.627 1679.205,968.627 1679.205,957.487 1668.011,957.487         1668.011,946.348 1623.223,946.348 1623.223,957.487 1634.421,957.487 1634.421,968.627 1645.618,968.627 1645.618,957.487         1656.813,957.487 1656.813,968.627 1668.011,968.627 1668.011,979.769 1690.388,979.769 1690.388,968.627       "/>
						<polygon style="fill:#79B346;" points="1656.813,979.769 1645.618,979.769 1645.618,990.908 1634.421,990.908         1634.421,1002.051 1668.011,1002.051 1668.011,990.908 1656.813,990.908 1656.813,979.769       "/>
						<polygon style="fill:#79B346;" points="1589.647,946.348 1556.058,946.348 1556.058,957.487 1578.453,957.487         1578.453,968.627 1600.831,968.627 1600.831,957.487 1612.028,957.487 1612.028,946.348 1589.647,946.348       "/>
						<polygon style="fill:#79B346;" points="1556.058,968.627 1544.863,968.627 1544.863,990.908 1533.666,990.908         1533.666,1002.051 1556.058,1002.051 1556.058,990.908 1567.255,990.908 1567.255,979.769 1578.453,979.769 1578.453,968.627         1556.058,968.627       "/>
						<polygon style="fill:#79B346;" points="1533.666,968.627 1533.666,957.487 1544.863,957.487 1544.863,946.348         1488.893,946.348 1488.893,957.487 1511.288,957.487 1511.288,979.769 1533.666,979.769 1533.666,968.627       "/>
						<polygon style="fill:#79B346;" points="1477.698,968.627 1477.698,990.908 1488.893,990.908 1488.893,979.769         1500.09,979.769 1500.09,968.627 1477.698,968.627       "/>
						<polygon style="fill:#79B346;" points="1477.698,946.348 1444.108,946.348 1444.108,957.487 1432.925,957.487         1432.925,968.627 1444.108,968.627 1444.108,979.769 1455.306,979.769 1455.306,968.627 1477.698,968.627 1477.698,946.348               "/>
						<polygon style="fill:#79B346;" points="1421.728,946.348 1388.141,946.348 1388.141,968.627 1399.335,968.627         1399.335,979.769 1421.728,979.769 1421.728,957.487 1432.925,957.487 1432.925,946.348 1421.728,946.348       "/>
					</g>
					<polygon style="fill:#9BE65A;" points="1723.978,935.206 1388.141,935.206 1388.141,946.348 1735.176,946.348        1735.176,935.206 1723.978,935.206      "/>
				</g>
				<g>
					<rect x="1891.898" y="1002.051" style="fill:#C96965;" width="11.194" height="11.14"/>
					<rect x="1880.7" y="1013.19" style="fill:#C96965;" width="11.198" height="11.124"/>
					<rect x="1869.506" y="1002.051" style="fill:#C96965;" width="11.194" height="11.14"/>
					<polygon style="fill:#C96965;" points="1824.733,1002.051 1813.535,1002.051 1813.535,1013.19 1802.341,1013.19        1802.341,1024.314 1824.733,1024.314 1835.928,1024.314 1835.928,1013.19 1824.733,1013.19      "/>
					<rect x="1779.96" y="990.908" style="fill:#C96965;" width="11.184" height="11.143"/>
					<rect x="1757.567" y="1002.051" style="fill:#C96965;" width="22.393" height="11.14"/>
					<rect x="1746.37" y="990.908" style="fill:#C96965;" width="11.197" height="11.143"/>
					<rect x="1735.176" y="1035.472" style="fill:#5E2725;" width="184.824" height="44.528"/>
					<path style="fill:#873835;" d="M1920,979.769h-5.71v11.14h-11.197v11.143v11.14h-11.194v11.124H1880.7v-11.124h-11.194v-11.14       h11.194v-11.143h11.198v-22.281h11.194H1920v-11.14h-16.907v-11.14h-11.194v11.14H1880.7v11.14v11.142h-22.377v-22.281h-22.396       v-11.14h-11.194v22.279h22.392v11.142h-11.197v11.14h-11.194v-22.281h-22.393v11.142h-11.197v-11.142h-11.184v-11.14h-11.197       v22.281h-22.393v-11.142h-11.194v66.845H1920V979.769z M1791.144,1002.051h-11.184v11.14h-22.393v-11.14h-11.197v-11.143       h11.197v11.143h22.393v-11.143h11.184V1002.051z M1835.928,1024.314h-11.194h-22.393v-11.124h11.194v-11.14h11.198v11.14       h11.194V1024.314z"/>
					<rect x="1880.7" y="1002.051" style="fill:#873835;" width="11.198" height="11.14"/>
					<rect x="1779.96" y="946.348" style="fill:#873835;" width="11.184" height="11.14"/>
					<rect x="1903.093" y="946.348" style="fill:#79B346;" width="16.907" height="11.14"/>
					<polygon style="fill:#79B346;" points="1891.898,968.627 1891.898,990.908 1880.7,990.908 1880.7,1002.051 1891.898,1002.051        1903.093,1002.051 1903.093,990.908 1914.29,990.908 1914.29,979.769 1920,979.769 1920,968.627 1903.093,968.627      "/>
					<polygon style="fill:#79B346;" points="1835.928,957.487 1858.323,957.487 1858.323,979.769 1880.7,979.769 1880.7,968.627        1880.7,957.487 1891.898,957.487 1891.898,946.348 1835.928,946.348      "/>
					<polygon style="fill:#79B346;" points="1835.928,990.908 1835.928,979.769 1847.125,979.769 1847.125,968.627        1824.733,968.627 1824.733,990.908      "/>
					<polygon style="fill:#79B346;" points="1791.144,957.487 1779.96,957.487 1779.96,968.627 1791.144,968.627 1791.144,979.769        1802.341,979.769 1802.341,968.627 1824.733,968.627 1824.733,946.348 1791.144,946.348      "/>
					<polygon style="fill:#79B346;" points="1746.37,979.769 1768.763,979.769 1768.763,957.487 1779.96,957.487 1779.96,946.348        1768.763,946.348 1735.176,946.348 1735.176,968.627 1746.37,968.627      "/>
					<polygon style="fill:#9BE65A;" points="1779.96,946.348 1791.144,946.348 1824.733,946.348 1835.928,946.348 1891.898,946.348        1903.093,946.348 1920,946.348 1920,935.206 1735.176,935.206 1735.176,946.348 1768.763,946.348      "/>
				</g>
			</g>
	</g>
</g>
</svg>